<svg width="64" height="64" viewBox="0 0 64 64" fill="none" xmlns="http://www.w3.org/2000/svg">
<path d="M20.2635 46.8492L32.2843 34.8284L44.3051 46.8492C45.0861 47.6303 46.3525 47.6303 47.1335 46.8492C47.9146 46.0682 47.9146 44.8019 47.1335 44.0208L35.1127 32L47.1335 19.9792C47.9146 19.1981 47.9146 17.9318 47.1335 17.1508C46.3525 16.3697 45.0861 16.3697 44.3051 17.1508L32.2843 29.1716L20.2635 17.1508C19.4824 16.3697 18.2161 16.3697 17.435 17.1508C16.654 17.9318 16.654 19.1981 17.435 19.9792L29.4558 32L17.435 44.0208C16.654 44.8019 16.654 46.0682 17.435 46.8492C18.2161 47.6303 19.4824 47.6303 20.2635 46.8492Z" stroke="black" stroke-width="2"/>
</svg>
